<?xml version="1.0" standalone="no"?><!DOCTYPE svg PUBLIC "-//W3C//DTD SVG 1.1//EN" "http://www.w3.org/Graphics/SVG/1.1/DTD/svg11.dtd"><svg t="1563595720804" class="icon" viewBox="0 0 1024 1024" version="1.1" xmlns="http://www.w3.org/2000/svg" p-id="3468" xmlns:xlink="http://www.w3.org/1999/xlink" width="200" height="200"><defs><style type="text/css"></style></defs><path d="M652.4 889.4H359c-17.3 0-31.4 14-31.4 31.4 0 17.3 14.1 31.4 31.4 31.4h293.5c17.3 0 31.4-14 31.4-31.4s-14.2-31.4-31.5-31.4z" fill="#b72f14" p-id="3469"></path><path d="M652.4 959.6H359c-21.4 0-38.8-17.4-38.8-38.8S337.6 882 359 882h293.5c21.4 0 38.8 17.4 38.8 38.8s-17.5 38.8-38.9 38.8zM359 896.8c-13.2 0-24 10.8-24 24s10.8 24 24 24h293.5c13.2 0 24-10.8 24-24s-10.8-24-24-24H359zM867.6 729.2l-57.1-100.3c-11.1-26.3-36.7-34.9-55.3-29.6-17.3 5-26.5 20.4-23.3 39.2l0.1 0.7 0.3 0.7c0.1 0.3 0.2 0.6 0.4 1 0.4 1.1 0.9 2.6 1.7 4l66.4 116.9H209.2L275.6 645c3.2-5.5 4.9-11.9 4.9-18.4V445.1c0-84.3 65.9-171.8 153.3-203.7 21.8-7 38-10.2 47.8-11.5 11-1.5 32.3-1.9 46.5 0 14.6 2 31.5 6.2 51.5 12.7 85.6 32.5 150.1 119.5 150.1 202.5V543.2c0.9 16.1 15.2 28 34.8 28.9 16.8 0.8 36.2-7.7 39.3-28.2l0.1-0.5v-98.2c0-54.6-19.7-111.9-55.4-161.5-28.6-39.6-67.3-72.6-112-95.7-1.8-32.7-15.5-63.3-39-86.5-24.6-24.3-57.2-37.6-91.7-37.6-34.3 0-66.8 13.3-91.4 37.3-23.4 23-37.3 53.3-39.2 85.9-44.6 22.7-83.4 55.6-112.3 95.2-36.4 49.9-56.5 107.8-56.5 162.9v171.7l-69.4 122c-11.4 20-11.4 44.8 0.2 64.8 11.5 19.9 33 32.3 56.2 32.3H818c35.8 0 65-29.1 65-64.9-0.1-15.4-5.5-30.2-15.4-41.9zM448.1 162.1c8.9-20.4 32.1-34.1 57.6-34.1 25.7 0 48.9 13.9 57.7 34.5l3.6 8.5-10.5-1.7c-32.2-5.4-69.2-5.5-101.7-0.3l-10.5 1.7 3.8-8.6z" fill="#b72f14" p-id="3470"></path></svg>