<?xml version="1.0" standalone="no"?><!DOCTYPE svg PUBLIC "-//W3C//DTD SVG 1.1//EN" "http://www.w3.org/Graphics/SVG/1.1/DTD/svg11.dtd"><svg t="1562172090626" class="icon" viewBox="0 0 1024 1024" version="1.1" xmlns="http://www.w3.org/2000/svg" p-id="1854" xmlns:xlink="http://www.w3.org/1999/xlink" width="200" height="200"><defs><style type="text/css"></style></defs><path d="M309.646222 432.583111L126.435556 915.626667l483.043555-183.210667-299.804444-299.832889z m402.261334 321.820445l-683.52 259.242666 259.271111-683.52 424.248889 424.277334zM736.768 224.512l40.220444 40.248889-241.379555 241.351111-40.220445-40.220444zM626.090667 596.650667l-39.082667-41.358223c85.532444-80.782222 179.655111-95.687111 275.484444-42.581333l-27.591111 49.777778c-73.500444-40.732444-140.8-30.065778-208.810666 34.161778zM391.623111 362.183111l41.358222 39.054222c80.782222-85.504 95.687111-179.626667 42.552889-275.456l-49.749333 27.591111c40.732444 73.472 30.065778 140.8-34.161778 208.810667zM803.271111 203.406222l-47.075555-23.239111 45.340444-26.453333 23.239111-47.104 26.453333 45.340444 47.104 23.267556-45.340444 26.453333-23.239111 47.075556zM883.029333 641.422222l-46.421333-24.689778 46.421333-24.689777 24.689778-46.421334 24.689778 46.421334 46.421333 24.689777-46.421333 24.689778-24.689778 46.421334zM341.304889 97.052444L293.546667 73.671111l47.758222-23.352889 23.352889-47.758222 23.352889 47.758222 47.758222 23.352889-47.758222 23.381333-23.352889 47.729778z" fill="#ffffff" p-id="1855"></path><path d="M267.633778 413.269333l56.689778 4.664889-39.424 480-56.689778-4.664889zM396.572444 515.128889l56.860445 2.076444-11.576889 315.534223-56.860444-2.104889z" fill="#ffffff" p-id="1856"></path></svg>