<?xml version="1.0" standalone="no"?><!DOCTYPE svg PUBLIC "-//W3C//DTD SVG 1.1//EN" "http://www.w3.org/Graphics/SVG/1.1/DTD/svg11.dtd">
<svg t="1563596553577" class="icon" viewBox="-100 -100 1224 1224" version="1.1" 
    xmlns="http://www.w3.org/2000/svg" p-id="8157" 
    xmlns:xlink="http://www.w3.org/1999/xlink" width="200" height="200">
    <defs>
        <style type="text/css"></style>
    </defs>
    <path d="M779.055 512.577v67.292H243.791v-67.292h535.264zM777.902 712.916v67.293H242.638v-67.293h535.264z" p-id="8158" fill="#b72f14"></path>
    <path d="M680.231 0H159.195a94.594 94.594 0 0 0-94.21 94.21v835.58a94.594 94.594 0 0 0 94.21 94.21h705.61a94.594 94.594 0 0 0 94.21-94.21V298.394zM649.47 64.216l244.56 261.095H693.69a44.99 44.99 0 0 1-44.989-44.99z m244.945 387.99v463.357a44.99 44.99 0 0 1-45.375 45.759H173.422a44.99 44.99 0 0 1-44.99-44.99v-807.51a44.99 44.99 0 0 1 44.99-45.375H583.33v230.717a94.594 94.594 0 0 0 94.21 94.21h216.105z" p-id="8159" fill="#b72f14"></path>
</svg>