<?xml version="1.0" standalone="no"?><!DOCTYPE svg PUBLIC "-//W3C//DTD SVG 1.1//EN" "http://www.w3.org/Graphics/SVG/1.1/DTD/svg11.dtd"><svg t="1563704696379" class="icon" viewBox="0 0 1024 1024" version="1.1" xmlns="http://www.w3.org/2000/svg" p-id="2662" xmlns:xlink="http://www.w3.org/1999/xlink" width="200" height="200"><defs><style type="text/css"></style></defs><path d="M889.6 864H134.4c-57.6 0-102.4-44.8-102.4-102.4V262.4c0-57.6 44.8-102.4 102.4-102.4h755.2c57.6 0 102.4 44.8 102.4 102.4v492.8c0 57.6-44.8 108.8-102.4 108.8zM134.4 224c-19.2 0-38.4 19.2-38.4 38.4v492.8c0 19.2 19.2 38.4 38.4 38.4h755.2c19.2 0 38.4-19.2 38.4-38.4V262.4c0-19.2-19.2-38.4-38.4-38.4H134.4z" p-id="2663" fill="#b72f14"></path><path d="M512 544c-19.2 0-44.8-6.4-64-12.8L134.4 371.2l25.6-57.6 313.6 153.6c19.2 12.8 51.2 12.8 70.4 0l307.2-153.6 25.6 57.6L576 524.8c-19.2 12.8-38.4 19.2-64 19.2z" p-id="2664" fill="#b72f14"></path></svg>