<svg viewBox="0 0 1024 1024" version="1.1" xmlns="http://www.w3.org/2000/svg" xmlns:xlink="http://www.w3.org/1999/xlink" width="200" height="200">
    <path d="M896.332 852.635L730.835 687.138c49.99-60.086 80.062-137.333 80.062-221.607 0-191.485-155.23-346.715-346.715-346.715s-346.715 155.23-346.715 346.715 155.23 346.715 346.715 346.715c85.192 0 163.207-30.727 223.569-81.7L853.086 895.88c5.972 5.972 13.796 8.956 21.623 8.956 7.824 0 15.652-2.986 21.623-8.956 11.941-11.942 11.941-31.303 0-43.246z m-432.15-101.547c-38.577 0-75.967-7.542-111.133-22.416-33.996-14.38-64.541-34.977-90.786-61.222-26.245-26.245-46.843-56.79-61.223-90.787-14.874-35.165-22.415-72.555-22.415-111.133s7.541-75.967 22.415-111.133c14.38-33.996 34.978-64.541 61.223-90.786 26.245-26.245 56.789-46.843 90.786-61.222 35.165-14.875 72.556-22.416 111.133-22.416s75.967 7.541 111.133 22.416c33.996 14.379 64.541 34.977 90.787 61.222 26.244 26.245 46.842 56.79 61.222 90.786 14.874 35.165 22.415 72.556 22.415 111.133s-7.541 75.967-22.415 111.133c-14.38 33.997-34.977 64.542-61.222 90.787-26.246 26.245-56.79 46.843-90.787 61.222-35.166 14.874-72.556 22.416-111.133 22.416z" fill="#BBBBBB"></path>
</svg>