<?xml version="1.0" standalone="no"?><!DOCTYPE svg PUBLIC "-//W3C//DTD SVG 1.1//EN" "http://www.w3.org/Graphics/SVG/1.1/DTD/svg11.dtd"><svg t="1562247536371" class="icon" viewBox="0 0 1024 1024" version="1.1" xmlns="http://www.w3.org/2000/svg" p-id="4183" xmlns:xlink="http://www.w3.org/1999/xlink" width="200" height="200"><defs><style type="text/css"></style></defs><path d="M634.4 748c-4 0-8-1.6-11.2-4.8l-100.8-100c-3.2-3.2-4.8-7.2-4.8-11.2s1.6-8 4.8-11.2l98.4-98.4c6.4-6.4 16-6.4 22.4 0L744 623.2c6.4 6.4 6.4 16 0 22.4l-98.4 97.6c-3.2 3.2-7.2 4.8-11.2 4.8zM556 632l78.4 78.4 76-76L632 556l-76 76z" p-id="4184" fill="#ffffff"></path><path d="M838.4 1020c-17.6 0-36.8-1.6-56.8-4.8-68-12-136.8-44-175.2-82.4L520 846.4c-6.4-6.4-6.4-16 0-22.4l303.2-303.2c6.4-6.4 16-6.4 22.4 0l86.4 86.4c80 80 129.6 275.2 39.2 364.8-30.4 32-76.8 48-132.8 48z m-284-185.6l75.2 75.2c68 68 245.6 114.4 320 39.2 74.4-74.4 28-252-39.2-320l-75.2-75.2-280.8 280.8z" p-id="4185" fill="#ffffff"></path><path d="M916 924c-2.4 0-4-0.8-5.6-2.4-3.2-3.2-3.2-8 0-11.2 21.6-21.6 28-65.6 17.6-119.2-9.6-49.6-32-97.6-56.8-122.4l-41.6-41.6c-3.2-3.2-3.2-8 0-11.2 3.2-3.2 8-3.2 11.2 0l41.6 41.6C909.6 684.8 933.6 736 944 788c12 59.2 4 108-21.6 133.6-2.4 1.6-4 2.4-6.4 2.4zM113.6 247.2c-34.4 0-68.8-12.8-94.4-39.2L8.8 197.6c-6.4-6.4-6.4-16 0-22.4L175.2 8.8c5.6-5.6 16.8-5.6 22.4 0L208 19.2c25.6 25.6 39.2 59.2 39.2 94.4 0 36-13.6 69.6-39.2 94.4-26.4 26.4-60.8 39.2-94.4 39.2z m-71.2-60.8c40 39.2 104 38.4 143.2-0.8 19.2-19.2 29.6-44.8 29.6-72 0-27.2-10.4-52-28.8-71.2l-144 144z" p-id="4186" fill="#ffffff"></path><path d="M555.2 626.4c-4 0-8-1.6-11.2-4.8L152.8 231.2c-4-4-5.6-8.8-4.8-13.6 0.8-4.8 4-9.6 8.8-12 10.4-4.8 20-12 28-20s14.4-17.6 20-28c2.4-4.8 6.4-8 12-8.8 4.8-0.8 10.4 0.8 13.6 4.8L621.6 544c3.2 3.2 4.8 7.2 4.8 11.2s-1.6 8-4.8 11.2l-55.2 55.2c-3.2 3.2-7.2 4.8-11.2 4.8zM190.4 223.2L555.2 588l32.8-32.8-364.8-364.8a159.968 159.968 0 0 1-32.8 32.8z" p-id="4187" fill="#ffffff"></path></svg>