<svg xmlns="http://www.w3.org/2000/svg" viewBox="0 0 283.46 283.46">
    <title>Yuan Sa Gong Ping LOGO</title>
    <mask id="myMask">
        <rect fill="white" width="283.46" height="283.46"/>
        <path fill="black" d="M66.27,116q7.71,16.55,21,22.06V123.74Q72.88,113.81,71.78,77.4h-2.2a3.2,3.2,0,0,1-2.21,1.11q-11,1.11-11-9.93Q55.23,62,65.17,62q14.33,1.11,53,1.1c5.14,0,7.73,2.21,7.73,6.62,0,3.69-1.85,5.52-5.52,5.52a21.26,21.26,0,0,0-6.62,1.1Q112.6,116,98.26,123.74v14.34q11-3.3,15.45-16.54,2.19-11,6.62-12.14,5.51,1.11,3.31,14.34-5.53,23.17-26.48,29.79,0,12.15-1.1,24.27c-.74,2.21-1.85,3.31-3.31,3.31q-3.31,0-3.31-3.31-1.11-13.23-1.11-25.37-18.76-3.31-32-30.89-4.43-11,1.1-14.35C60.37,106.47,63.32,109.4,66.27,116Zm9.93,57.37A25.31,25.31,0,0,0,74,182.22H110.4a48.9,48.9,0,0,0-1.1-8.83V169c0-2.93,1.1-4.78,3.31-5.52,2.2,0,4,1.48,5.51,4.41q6.63,21,0,50.76-3.3,13.23-25.37,14.34Q80.59,233,74,225.24q-11-9.92-12.14-30.89Q60.74,182.23,66.27,169c2.2-3.68,4.41-5.14,6.62-4.42C75.82,166.05,76.92,169,76.2,173.39ZM70.68,25.55H83.92q20.94,1.11,32,1.1c5.13,0,7.72,2.59,7.72,7.73q-1.11,6.61-11,6.61-33.1,0-40.83,1.11-8.84,0-8.82-11Q63,25.55,70.68,25.55ZM110.4,195.46H74a8.35,8.35,0,0,0,1.1,3.31v4.41Q78.41,219.73,95,220.83q15.45,0,15.45-23.17ZM102.68,76.3a183.58,183.58,0,0,0-19.86,1.1q1.08,32,11,33.1Q103.78,107.2,102.68,76.3Zm32,48.54h7.73Q158.95,126,170,126v-8.83a65.91,65.91,0,0,1-1.11-9.93q-1.11-45.22-2.2-73.92a91,91,0,0,0-11,1.11q-7.73,0-9.92,1.1-14.36,2.22-12.14-12.14,2.19-11,9.93-6.62,6.62,3.32,15.44,2.21h49.65q11,0,11,8.83,0,6.61-9.93,5.51H178.8q0,49.65,1.11,72.82A65.59,65.59,0,0,0,181,116a33.37,33.37,0,0,0,1.1,9.93q14.32,1.11,37.52,1.1,9.93,0,8.82,8.83c0,3.69-3.31,5.15-9.93,4.41h-33.1a83.38,83.38,0,0,0,4.42,9.93q14.32,28.71-6.62,60.68Q158.94,244,120.33,265c-3,1.47-4.79,1.83-5.52,1.11-.74-1.49,0-2.95,2.21-4.42a170,170,0,0,1,23.17-23.17q56.26-45.22,39.72-81.64c-3.69-7.34-5.9-13.24-6.62-17.65q-34.22,0-36.41,1.1-9.93,2.22-9.93-8.83Q125.84,123.76,134.67,124.84Zm17.66-69.5q9.91,21-5.52,50.75-5.53,11-11,9.93c-2.95-2.21-2.95-6.24,0-12.14q11-20.94,6.62-37.51-3.32-13.25,1.1-16.55C146.43,49.1,149.38,50.92,152.33,55.34Zm50.75,14.34q-7.74,13.25,11,39.72c2.21,2.95,1.83,5.52-1.1,7.72-2.21.74-4.8,0-7.73-2.2q-19.86-21-15.44-54.07c.72-8.82,3.31-12.49,7.72-11Q208.57,55.36,203.08,69.68Z"/>
    </mask>
    <rect width="283.46" height="283.46" mask="url(#myMask)" />
</svg>